<svg version="1.2" xmlns="http://www.w3.org/2000/svg" viewBox="0 0 416 73" width="416" height="73"><defs><clipPath clipPathUnits="userSpaceOnUse" id="cp1"><path d="m1.4 6.67h76.39v52.13h-76.39z"/></clipPath></defs><style></style><g clip-path="url(#cp1)"><path  d="m74.3 10.8l3.5 2.8c-3.3-0.2-5.9 1-7.8 2.4-1.8 1.3-3.3 3.1-4.3 5.2l-13.7 28c-2.8 5.9-8.8 9.6-15.3 9.6h-8.6l20.8-42.2q0.8-1.7 1.9-3c-3.2-0.1-5.7 1-7.5 2.4-1.9 1.3-3.3 3.1-4.3 5.2l-13.7 28c-2.9 5.9-8.8 9.6-15.4 9.6h-8.5l20.7-42.2c4.8-9.6 17.1-12.4 25.5-5.8l3.3 2.6c5.6-6.9 16-8.4 23.4-2.6zm-10.9 30.1l-9 17.9h23.4l-9.4-18c-1-2-3.9-2-5 0.1z"/></g><path  d="m95 53.7v-36.5h7l0.6 4.7q1.5-3 4.4-4.2 2.9-1.2 5.8-1.2 3.5 0 6.6 1.6 3.2 1.6 4.8 5.7 2.2-4.2 5.5-5.7 3.2-1.6 7-1.6 7.6 0 11.5 4.5 3.9 4.4 3.9 12.4v20.3h-7.7v-20.3q0-4.1-2-6.9-2-2.8-6-2.8-4.1 0-6.5 2.9-2.4 2.9-2.4 6.9v20.2h-7.7v-20.2q0-4-2.2-6.9-2.2-3-6.2-3-4 0-6.4 3-2.4 2.9-2.4 6.9v20.2z"/><path  d="m174.8 54.6q-5.4 0-9.6-2.2-4.2-2.2-6.7-6.5-2.4-4.3-2.4-10.4 0-6.2 2.5-10.4 2.6-4.2 6.8-6.4 4.3-2.2 9.5-2.2 3.9 0 7.3 1.7 3.4 1.7 5.1 4.8l0.3-5.8h7.3v36.5h-7.2l-0.4-5.9q-1.2 2.3-3.3 3.9-2.1 1.5-4.6 2.2-2.4 0.7-4.6 0.7zm0.7-7q4 0 6.6-1.8 2.6-1.8 3.9-4.6 1.3-2.7 1.3-5.7 0-3.1-1.3-5.8-1.3-2.7-3.9-4.5-2.6-1.8-6.6-1.8-3.2 0-5.9 1.5-2.7 1.5-4.3 4.2-1.6 2.6-1.6 6.4 0 3.6 1.6 6.4 1.6 2.7 4.3 4.2 2.7 1.5 5.9 1.5z"/><path  d="m201.6 53.7v-36.5h7l0.4 5.3q5.3-6 12.3-6 4.4 0 7.9 2.1 3.6 2 5.7 5.9 2 3.9 2 9.6v19.6h-7.6v-19.5q0-4.7-2.6-7.7-2.5-2.9-7.3-2.9-3 0-5.3 1.5-2.3 1.5-3.6 4-1.3 2.5-1.3 5.5v19.1z"/><path  d="m244.8 70.7l7.6-17.5-14.6-36h8.9l9.9 27.6 3.9-10 7.2-17.6h8.5l-23 53.5z"/><path  d="m279.2 53.7v-51.7h7.6v51.7z"/><path  d="m311.3 54.7q-6 0-10.4-2.4-4.4-2.4-6.8-6.7-2.5-4.3-2.5-10.1 0-5.6 2.4-9.9 2.4-4.2 6.7-6.7 4.4-2.4 10.1-2.4 5.4 0 9.5 2 4.2 2.1 6.5 6.3 2.4 4.2 2.4 10.4 0 0.8 0 1.6-0.1 0.9-0.1 1.7h-29.6q0.5 4.2 3.7 6.7 3.2 2.4 8.2 2.4 2.8 0 5.8-1 3.1-1 4.8-2.9l4.9 4.8q-2.8 3.2-7.1 4.7-4.3 1.5-8.5 1.5zm-11.6-22.6h22.1q-0.4-4.4-3.3-6.6-2.9-2.2-7.5-2.2-4.2 0-7.3 2.2-3.1 2.2-4 6.6z"/><path  d="m349.6 54.6q-5.3 0-9.5-2.2-4.2-2.2-6.7-6.5-2.4-4.3-2.4-10.4 0-6.2 2.5-10.4 2.6-4.2 6.8-6.4 4.3-2.2 9.5-2.2 3.9 0 7.3 1.7 3.4 1.7 5.1 4.8l0.2-5.8h7.4v36.5h-7.2l-0.4-5.9q-1.2 2.3-3.3 3.9-2.1 1.5-4.6 2.2-2.4 0.7-4.7 0.7zm0.8-7q4 0 6.6-1.8 2.6-1.8 3.9-4.6 1.3-2.7 1.3-5.7 0-3.1-1.3-5.8-1.3-2.7-3.9-4.5-2.6-1.8-6.6-1.8-3.3 0-6 1.5-2.7 1.5-4.2 4.2-1.6 2.6-1.6 6.4 0 3.6 1.6 6.4 1.5 2.7 4.2 4.2 2.7 1.5 6 1.5z"/><path  d="m392.9 54.4q-5.2 0-9.5-2.2-4.2-2.2-6.6-6.5-2.5-4.2-2.5-10.2 0-6.3 2.4-10.5 2.4-4.3 6.6-6.4 4.2-2.1 9.5-2.1 2.2 0 4.7 0.7 2.5 0.7 4.7 2.1 2.2 1.4 3.3 3.7v-21h7.6v51.7h-7.1l-0.5-5.8q-2.1 3.5-5.5 5-3.5 1.5-7.1 1.5zm0.5-7.1q3.2 0 5.8-1.5 2.7-1.4 4.2-4.1 1.6-2.7 1.6-6.2 0-3.6-1.6-6.3-1.5-2.6-4.2-4.1-2.6-1.5-5.8-1.5-4.8 0-8.2 3.2-3.3 3.1-3.3 8.7 0 5.5 3.3 8.7 3.4 3.1 8.2 3.1z"/></svg>