<svg xmlns="http://www.w3.org/2000/svg" xmlns:xlink="http://www.w3.org/1999/xlink" width="250" height="250" viewBox="0 0 250 250"><defs><rect id="a" width="250" height="250" x="0" y="0"/></defs><g fill="none" fill-rule="evenodd"><mask id="b" fill="#fff"><use xlink:href="#a"/></mask><use xlink:href="#a" fill="#E1DFDF"/><g mask="url(#b)"><g transform="translate(-28 23)"><rect width="306" height="306"/><path fill="#FFF" d="M95.7219607,76.4284782 C95.7219607,44.7116055 121.366212,19 153,19 C184.633788,19 210.278039,44.7116055 210.278039,76.4284782 C210.278039,108.145351 184.633788,133.856956 153,133.856956 C121.366212,133.856956 95.7219607,108.145351 95.7219607,76.4284782 L95.7219607,76.4284782 Z M21.5672243,279.634267 C22.6869984,207.656339 81.2019214,149.894168 153,149.894168 C224.798079,149.894168 283.313002,207.656339 284.432776,279.634267 C284.515554,284.393215 281.78258,288.751122 277.468165,290.736748 C238.419206,308.687738 195.957768,317.952207 153,317.894168 C108.610816,317.894168 66.4363105,308.181221 28.5318346,290.736748 C24.21742,288.751122 21.4844464,284.393215 21.5672243,279.634267 L21.5672243,279.634267 Z"/></g></g></g></svg>